<?xml version="1.0" encoding="UTF-8"?>
<svg version="1.1" viewBox="0 0 24 24" xmlns="http://www.w3.org/2000/svg" xmlns:xlink="http://www.w3.org/1999/xlink">
    <!--Generated by IJSVG (https://github.com/curthard89/IJSVG)-->
    <g fill="#000000">
        <path d="M23.462,9.378l-10.171,-8.811c-0.034,-0.029 -0.075,-0.054 -0.121,-0.073c-0.651,-0.494 -1.55,-0.471 -2.178,0.073l-10.171,8.81c-0.729,0.631 -0.821,1.751 -0.204,2.497c0.39,0.472 1.037,0.466 1.533,0.366v9.471c0,0.715 0.574,1.297 1.28,1.297h6.127c0.276,0 0.5,-0.224 0.5,-0.5v-8.26h4.17v8.26c0,0.276 0.224,0.5 0.5,0.5h6.127c0.706,0 1.28,-0.582 1.28,-1.297v-9.471c0.498,0.098 1.143,0.105 1.533,-0.366c0.616,-0.746 0.524,-1.867 -0.205,-2.496Zm-0.566,1.858c-0.103,0.121 -0.636,0.055 -1.062,-0.131c-0.155,-0.068 -0.335,-0.052 -0.474,0.04c-0.141,0.092 -0.227,0.25 -0.227,0.418v10.147c0,0.164 -0.126,0.297 -0.28,0.297h-5.627v-8.26c0,-0.276 -0.224,-0.5 -0.5,-0.5h-5.17c-0.276,0 -0.5,0.224 -0.5,0.5v8.26h-5.627c-0.154,0 -0.28,-0.133 -0.28,-0.297v-10.147c0,-0.169 -0.085,-0.327 -0.227,-0.419c-0.141,-0.091 -0.32,-0.105 -0.475,-0.039c-0.378,0.167 -0.953,0.261 -1.061,0.13c-0.273,-0.33 -0.234,-0.824 0.088,-1.103l10.171,-8.811c0.278,-0.24 0.681,-0.24 0.959,-6.66134e-16c0.036,0.032 0.077,0.058 0.12,0.077l10.083,8.736c0.323,0.278 0.362,0.772 0.089,1.102Z" transform="translate(-0.115, 0.966)"></path>
    </g>
</svg>
